HIERARCHY
ROOT Hips
{
	OFFSET -14.64140 90.27770 -84.91600
	CHANNELS 6 Xposition Yposition Zposition Zrotation Xrotation Yrotation
	JOINT Spine
	{
		OFFSET 0.00000 13.20850 -1.60436
		CHANNELS 3 Zrotation Xrotation Yrotation
		JOINT Spine1
		{
			OFFSET 0.00000 8.61716 0.00000
			CHANNELS 3 Zrotation Xrotation Yrotation
			JOINT Spine2
			{
				OFFSET 0.00000 8.61717 0.00000
				CHANNELS 3 Zrotation Xrotation Yrotation
				JOINT Spine3
				{
					OFFSET 0.00000 8.61717 0.00000
					CHANNELS 3 Zrotation Xrotation Yrotation
					JOINT Neck
					{
						OFFSET 0.00000 11.07920 1.10792
						CHANNELS 3 Zrotation Xrotation Yrotation
						JOINT Neck1
						{
							OFFSET 0.00000 7.08032 0.00000
							CHANNELS 3 Zrotation Xrotation Yrotation
							JOINT Head
							{
								OFFSET 0.00000 7.08031 0.00000
								CHANNELS 3 Zrotation Xrotation Yrotation
								End site
								{
									OFFSET 0.00000 0.00000 0.00000
								}
							}
						}
					}
					JOINT RightShoulder
					{
						OFFSET -0.01000 7.91373 5.19711
						CHANNELS 3 Zrotation Xrotation Yrotation
						JOINT RightArm
						{
							OFFSET -18.41580 0.00000 0.00000
							CHANNELS 3 Zrotation Xrotation Yrotation
							JOINT RightForeArm
							{
								OFFSET -29.11090 0.00000 0.00000
								CHANNELS 3 Zrotation Xrotation Yrotation
								JOINT RightHand
								{
									OFFSET -24.65040 0.00000 0.00000
									CHANNELS 3 Zrotation Xrotation Yrotation
									JOINT RightHandThumb1
									{
										OFFSET -5.35114 -0.85590 3.97906
										CHANNELS 3 Zrotation Xrotation Yrotation
										JOINT RightHandThumb2
										{
											OFFSET -4.52789 0.00000 0.00000
											CHANNELS 3 Zrotation Xrotation Yrotation
											JOINT RightHandThumb3
											{
												OFFSET -2.46976 0.00000 0.00000
												CHANNELS 3 Zrotation Xrotation Yrotation
												End site
												{
													OFFSET 0.00000 0.00000 0.00000
												}
											}
										}
									}
									JOINT RightHandIndex1
									{
										OFFSET -14.26970 0.00000 2.88139
										CHANNELS 3 Zrotation Xrotation Yrotation
										JOINT RightHandIndex2
										{
											OFFSET -5.48836 0.00000 0.00000
											CHANNELS 3 Zrotation Xrotation Yrotation
											JOINT RightHandIndex3
											{
												OFFSET -3.01859 0.00000 0.00000
												CHANNELS 3 Zrotation Xrotation Yrotation
												End site
												{
													OFFSET 0.00000 0.00000 0.00000
												}
											}
										}
									}
									JOINT RightHandMiddle1
									{
										OFFSET -14.26970 0.00000 -0.09147
										CHANNELS 3 Zrotation Xrotation Yrotation
										JOINT RightHandMiddle2
										{
											OFFSET -6.17441 0.00000 0.00000
											CHANNELS 3 Zrotation Xrotation Yrotation
											JOINT RightHandMiddle3
											{
												OFFSET -3.56743 0.00000 0.00000
												CHANNELS 3 Zrotation Xrotation Yrotation
												End site
												{
													OFFSET 0.00000 0.00000 0.00000
												}
											}
										}
									}
									JOINT RightHandRing1
									{
										OFFSET -12.69180 0.00000 -3.06433
										CHANNELS 3 Zrotation Xrotation Yrotation
										JOINT RightHandRing2
										{
											OFFSET -5.62556 0.00000 0.00000
											CHANNELS 3 Zrotation Xrotation Yrotation
											JOINT RightHandRing3
											{
												OFFSET -3.56744 0.00000 0.00000
												CHANNELS 3 Zrotation Xrotation Yrotation
												End site
												{
													OFFSET 0.00000 0.00000 0.00000
												}
											}
										}
									}
									JOINT RightHandPinky1
									{
										OFFSET -11.11390 0.00000 -6.03719
										CHANNELS 3 Zrotation Xrotation Yrotation
										JOINT RightHandPinky2
										{
											OFFSET -4.52789 0.00000 0.00000
											CHANNELS 3 Zrotation Xrotation Yrotation
											JOINT RightHandPinky3
											{
												OFFSET -2.46976 0.00000 0.00000
												CHANNELS 3 Zrotation Xrotation Yrotation
												End site
												{
													OFFSET 0.00000 0.00000 0.00000
												}
											}
										}
									}
								}
							}
						}
					}
					JOINT LeftShoulder
					{
						OFFSET 0.01000 7.91373 5.19711
						CHANNELS 3 Zrotation Xrotation Yrotation
						JOINT LeftArm
						{
							OFFSET 18.41580 0.00000 0.00000
							CHANNELS 3 Zrotation Xrotation Yrotation
							JOINT LeftForeArm
							{
								OFFSET 29.11090 0.00000 0.00000
								CHANNELS 3 Zrotation Xrotation Yrotation
								JOINT LeftHand
								{
									OFFSET 24.65040 0.00000 0.00000
									CHANNELS 3 Zrotation Xrotation Yrotation
									JOINT LeftHandThumb1
									{
										OFFSET 5.35114 -0.85590 3.97906
										CHANNELS 3 Zrotation Xrotation Yrotation
										JOINT LeftHandThumb2
										{
											OFFSET 4.52789 0.00000 0.00000
											CHANNELS 3 Zrotation Xrotation Yrotation
											JOINT LeftHandThumb3
											{
												OFFSET 2.46977 0.00000 0.00000
												CHANNELS 3 Zrotation Xrotation Yrotation
												End site
												{
													OFFSET 0.00000 0.00000 0.00000
												}
											}
										}
									}
									JOINT LeftHandIndex1
									{
										OFFSET 14.26970 0.00000 2.88139
										CHANNELS 3 Zrotation Xrotation Yrotation
										JOINT LeftHandIndex2
										{
											OFFSET 5.48836 0.00000 0.00000
											CHANNELS 3 Zrotation Xrotation Yrotation
											JOINT LeftHandIndex3
											{
												OFFSET 3.01859 0.00000 0.00000
												CHANNELS 3 Zrotation Xrotation Yrotation
												End site
												{
													OFFSET 0.00000 0.00000 0.00000
												}
											}
										}
									}
									JOINT LeftHandMiddle1
									{
										OFFSET 14.26970 0.00000 -0.09147
										CHANNELS 3 Zrotation Xrotation Yrotation
										JOINT LeftHandMiddle2
										{
											OFFSET 6.17440 0.00000 0.00000
											CHANNELS 3 Zrotation Xrotation Yrotation
											JOINT LeftHandMiddle3
											{
												OFFSET 3.56744 0.00000 0.00000
												CHANNELS 3 Zrotation Xrotation Yrotation
												End site
												{
													OFFSET 0.00000 0.00000 0.00000
												}
											}
										}
									}
									JOINT LeftHandRing1
									{
										OFFSET 12.69180 0.00000 -3.06433
										CHANNELS 3 Zrotation Xrotation Yrotation
										JOINT LeftHandRing2
										{
											OFFSET 5.62556 0.00000 0.00000
											CHANNELS 3 Zrotation Xrotation Yrotation
											JOINT LeftHandRing3
											{
												OFFSET 3.56744 0.00000 0.00000
												CHANNELS 3 Zrotation Xrotation Yrotation
												End site
												{
													OFFSET 0.00000 0.00000 0.00000
												}
											}
										}
									}
									JOINT LeftHandPinky1
									{
										OFFSET 11.11390 0.00000 -6.03719
										CHANNELS 3 Zrotation Xrotation Yrotation
										JOINT LeftHandPinky2
										{
											OFFSET 4.52789 0.00000 0.00000
											CHANNELS 3 Zrotation Xrotation Yrotation
											JOINT LeftHandPinky3
											{
												OFFSET 2.46976 0.00000 0.00000
												CHANNELS 3 Zrotation Xrotation Yrotation
												End site
												{
													OFFSET 0.00000 0.00000 0.00000
												}
											}
										}
									}
								}
							}
						}
					}
					JOINT pCube4
					{
						OFFSET 0.00000 10.91090 1.10792
						CHANNELS 3 Zrotation Xrotation Yrotation
						End site
						{
							OFFSET 0.00000 0.00000 0.00000
						}
					}
				}
			}
		}
	}
	JOINT RightUpLeg
	{
		OFFSET -9.98441 0.00000 0.00000
		CHANNELS 3 Zrotation Xrotation Yrotation
		JOINT RightLeg
		{
			OFFSET 0.00000 -42.11790 0.00000
			CHANNELS 3 Zrotation Xrotation Yrotation
			JOINT RightFoot
			{
				OFFSET 0.00000 -45.00020 -0.00001
				CHANNELS 3 Zrotation Xrotation Yrotation
				JOINT RightForeFoot
				{
					OFFSET 0.00000 -3.74820 0.00000
					CHANNELS 3 Zrotation Xrotation Yrotation
					JOINT RightToeBase
					{
						OFFSET 0.00000 0.06325 14.43120
						CHANNELS 3 Zrotation Xrotation Yrotation
						End site
						{
							OFFSET 0.00000 0.00000 0.00000
						}
					}
				}
			}
		}
	}
	JOINT LeftUpLeg
	{
		OFFSET 9.98441 0.00000 0.00000
		CHANNELS 3 Zrotation Xrotation Yrotation
		JOINT LeftLeg
		{
			OFFSET 0.00000 -42.11800 0.00000
			CHANNELS 3 Zrotation Xrotation Yrotation
			JOINT LeftFoot
			{
				OFFSET 0.00000 -45.00070 0.00000
				CHANNELS 3 Zrotation Xrotation Yrotation
				JOINT LeftForeFoot
				{
					OFFSET 0.00000 -3.74824 0.00000
					CHANNELS 3 Zrotation Xrotation Yrotation
					JOINT LeftToeBase
					{
						OFFSET 0.00000 0.06325 14.43110
						CHANNELS 3 Zrotation Xrotation Yrotation
						End site
						{
							OFFSET 0.00000 0.00000 0.00000
						}
					}
				}
			}
		}
	}
}
MOTION
Frames: 4
Frame Time: 0.050000
0.011743640738720588 0.007992966995970215 0.02555336921034513 0.035626211728487345 0.022819093322254534 0.005698225490406866 -3.3749874502279518 -0.6381228529142846 -0.763932038464449 -0.8747457184915112 3.5889659447890025 0.3935373074277196 -1.1615002194899515 -2.116011886175091 -1.5237762000558337 -0.20076523196459667 0.2143303017325177 -0.9003050050866908 -0.33609339503778585 12.128335846151959 1.0213615191048018 0.23686919358241348 0.2864649887501646 1.4010163159547218 -0.01765756566190868 -14.296044116148062 0.13696153648997583 -3.4385192690124495 1.396905728852122 -14.325073881574298 73.18979735730716 26.056938045280038 3.305344008572762 35.29029100051872 6.631335932614279 87.18889720903125 23.180429941737238 -0.37982166523647876 -3.84026639889422 4.512573250913726 -0.10549971176546956 -1.5689782178319471 -0.0035246915994216533 0.029317980907562907 -56.2159679667354 -0.029380768719320233 0.04947345519126806 -56.28242955742814 -38.73986033673663 0.030372425481641548 -0.03364421337730482 -0.035897378678268636 0.0006390178880292045 -0.04927833767919373 0.0029888263824750117 -0.005346349579857811 0.021291993705492552 -36.74140682674814 0.025344858467467164 0.014499983496048582 0.005840521331951621 -0.0313465524695626 -0.00741577558359614 0.03568098884708805 0.04026173006864829 0.01873945892028669 -19.712011149942693 0.007264347189730193 0.009101994987592133 0.005471146607133181 0.03959893401850291 0.009427597400433217 -0.006964496972542935 -0.0401279137981745 -0.0348798456017309 24.03763112810659 -0.008802503693868102 -0.010603549034907438 28.83525530320645 0.035461348147563646 0.023233502259632607 28.904730608499094 0.020241188615662074 0.025944645808353387 6.130311064499594 1.4447590362079832 12.415322292084507 -73.62245233138951 25.000754764422314 -8.2274703873972 -92.60365252342181 9.482223255757956 -106.78158908142512 -20.285072769154393 -1.6424862514099965 0.7408645504402451 -0.5060763739416563 0.09832751464506403 -8.109729240148448 -0.046522962768698634 -0.024852445559111595 44.5353990059187 0.048370399299578766 0.037396078790555246 44.60521229165794 12.491417148491127 0.015116843545823776 -0.020084135710853348 0.03689568956397658 -0.00876797834164818 -0.013693951429954575 -0.02077808381803073 0.0020572333276351025 0.00786940397499365 11.115852233219778 0.034128376439212044 0.02664841598822058 0.04059643678555784 0.033956602790029065 0.013129584703372586 0.016520634890025334 0.03853336226246027 0.04336440779955349 4.747025835852023 0.04482141842766745 0.011029090251341788 0.034018436891269314 0.015778035947037732 0.014030632309835677 -0.015713559814920085 0.042678287013116795 0.020840899689980943 -5.589239318344814 -0.037322402966118426 -0.024259271327352977 -6.690240349685721 0.026180445783907245 -0.045804622971109765 -6.709374131679094 -0.01654735074414965 -0.016576640434646298 -0.003553345522087964 0.04007185825366169 0.03243859481140019 8.079949664648023 3.500345532859719 -19.24486667594069 -0.006875914966925997 10.418391963698742 -0.030971319161764748 -5.603497848697731 -15.615737555989297 3.1717071864551873 0.0032226157184966687 -0.03672878503537506 -0.00032811135260339057 0.018685355245345717 4.697295514361423 -0.019025133696665274 12.500255522543341 -8.260792404659407 6.863036873758461 0.003233959961086733 46.39402165387277 0.01850398357830985 -4.323571522283718 -14.731407984797299 -3.8288913791750816 -0.011486279421057725 -0.04677917688029689 -0.04403039762587576 0.01026705949747725 -10.768733294082717 0.005874219576654001 
-0.015414154054270138 -0.00934284788981378 -0.012251865318699887 -0.028998666867815395 0.006729736870416184 -0.019864686304330987 -3.3201540833179357 -0.6637606141283046 -0.8137146737388732 -0.9276271531358594 3.5687091992694695 0.39462593685383257 -1.1989563597230477 -2.088323922805479 -1.5428866246418689 -0.21559476298007013 0.27213479883569003 -0.8914303731955937 -0.3402764814123114 12.245079804584758 1.1529231075433417 0.24467124844875585 0.35716604351339404 1.7208298924095413 -0.13564503619164184 -14.096917590504685 0.17026024429363895 -3.3623346296413534 1.3907109378735147 -14.27947733738802 72.73067762537859 25.549614159050797 3.677110794464968 36.16512309521447 5.460935375359006 90.8520441358054 22.180950035595426 -0.3912843944217921 -3.7149715457781083 4.486775880747143 -0.12159212440925807 -1.5998780775167007 -0.019196933314496283 0.042327175260632205 -56.247559982813904 0.04161838023997571 -0.02539229861882893 -56.26287592412909 -38.75398598513385 -0.01711396172530635 -0.019037098025540104 -0.01576396856050132 -0.010739469710600327 -0.006233718896109444 0.01251180296154763 0.022220334243644755 0.038370516935746196 -36.71146518329734 -0.029633754842060534 -0.03138280518303375 -0.04831526163975083 -0.03418011222289875 0.013027182003827721 0.011652214025403165 0.034363475726808125 0.0012513617246486552 -19.764390047577375 -0.007519939063711196 0.009639738794194528 -0.03150439261149832 0.0005481036549905096 -0.03348275465521506 0.0026503595411493386 0.003035849102831349 -0.04728094107090425 24.0238036999277 0.011449288619690867 -0.036961567678837036 28.873601129040434 0.04214984536863916 -0.037183499699454586 28.817074399380047 -0.04326019502193052 -0.028711496753330384 6.002760822720884 1.464793655227902 12.335708238918834 -73.40488784924055 25.459700571043932 -7.986786758247597 -90.85031846632305 8.860967962256588 -105.61133228346979 -19.07225462469462 -0.7700384472299616 0.22678286040324558 -0.4881158779855726 0.040467046011999394 -8.086154418529643 -0.0015591301351448451 0.0004262390509528734 44.58844405324122 -0.02234310903699502 0.027916769128893043 44.55171579312531 12.492657499614861 -0.028639096836182026 -0.011596378043020794 0.025746663999990017 -0.004771565209606289 0.03414842682712231 0.020475930822071633 0.028574542936303453 0.020438826183436405 11.155156969027773 -0.01876335585394598 -0.0064814819551549385 -0.00821884300889997 -0.015713380299414173 0.035460910647591444 0.03850665780028523 -0.010414869068823225 0.032154901676483764 4.760705103789251 -0.017869865036633428 0.026258720890639676 0.04087799752554486 -0.0005425869938167502 -0.026682291571463273 0.007467990628102939 0.039288455429375854 0.0122203817973787 -5.630856538247371 -0.005612604405729082 0.0027852153683483255 -6.74765294171344 -0.022151601701934757 -0.033415324345372574 -6.739785713107843 0.030908954575771443 0.030848727957053304 -0.0189478424023316 0.04110277747389847 0.030880364875534378 8.05726506380081 3.464701769257715 -19.26828432950915 0.014820441640670116 10.382493274288699 -0.006461250459912797 -5.572621026197389 -15.688552315426739 3.1787954835959544 -0.03367368491431439 -0.005291645103200974 -0.02037052824109272 0.005118493089946327 4.681546505688071 -0.0309130103449217 12.467120482814924 -8.261173709636031 6.897898569863124 -0.03597022322856391 46.40629966182064 -0.04045976591917244 -4.307484230567875 -14.717661570754219 -3.8764290051400594 -0.01647238717974445 -0.03560928490630185 -0.011228556241536049 -0.028451990174474168 -10.790021184057442 -0.009125456779724888 
0.0055484076860992685 0.046058570878391165 0.0188790124617821 -0.007981237233646821 -0.0072531836441545455 -0.04023384853480567 -3.314804892707211 -0.6488473989029114 -0.7896098171702952 -0.934989905340677 3.608921117654801 0.35028357399022414 -1.1564722490391934 -2.058227514472016 -1.5035268932856343 -0.20101044568661125 0.32474779566246464 -0.9157000265703268 -0.3897675976014018 12.361433924645354 1.2334845545345374 0.2039942103663971 0.41577379156722755 2.0171673598272566 -0.19039775637074274 -13.915642920142895 0.1424945000197081 -3.3038965963462523 1.4482311284948293 -14.410122264429116 72.34813594489009 25.297135788724024 3.74037872596341 35.70959940960751 4.544909369352962 92.94121139541541 21.282393561632464 -0.2918551802449317 -3.736797662748755 4.512436518850889 -0.10606346295452035 -1.607555439803878 -0.0004290709898942058 -0.008800898338961544 -56.225671421285845 0.025267220433589914 -0.014061103278742985 -56.250112805396725 -38.74060155563762 0.033257556166534266 0.014447246460544003 -0.016634508691640498 -0.04846104941681149 -0.014795678822813857 -0.03130328611624617 -0.008346714423856207 -0.029517579626637605 -36.671680588837035 -0.03515040125072635 0.025898291000559327 -0.003260656251998123 -0.003585662695440072 -0.014217174510432135 -0.019680268210864684 0.03546805724428872 -0.021788661536408117 -19.73970740707819 0.007132431458021613 0.012944834731489819 -0.009989104074009426 -0.009148141720169468 0.021719428647156147 0.03691905620794021 0.014280486184410131 0.040523682876783276 24.044389021053636 -0.043611840543112596 -0.02074407367855097 28.8651250058352 -0.008719839281028752 -0.010305082246144712 28.879024663362124 -0.014535144269283314 0.02207913194953906 5.991407000209829 1.4068561221187685 12.50581384208271 -73.04949640183999 25.5636872810494 -7.9005004617730945 -86.40917357115835 8.99090097895712 -102.98771010581875 -17.505091888239587 -0.12144859003098621 -0.18358501522127385 -0.44625952876782476 0.04229800834985657 -8.120035038692453 -0.007698294846345693 -0.033361988227694976 44.588679937389635 0.0002934371715152684 -0.014070679455411458 44.56801688847901 12.437122018977128 -0.04888688242575613 0.006660990122104019 -0.018984477826712424 0.002340236131714806 0.014680478158610497 0.020005781717133724 0.0027411083622654454 -0.04936117646263348 11.088723545722525 0.021929472554923 -0.024901091754524932 0.011193397819336235 -0.008472323376356146 -0.001049630678775369 -0.03313956678502033 -0.01846564493917663 0.025332601358771484 4.788110745387226 0.024270374300323604 -0.010738916856715524 -0.012128615978118958 0.018430990088519363 -0.011875257370480853 -0.013043610856359878 -0.04280804450896261 0.0026452955587361777 -5.619437826517986 0.03450059538178863 -0.004026025197050009 -6.683276545100745 -0.03519180664280024 0.03651548385914449 -6.716537641641102 0.013132332758578136 0.04030739501346185 -0.006303337100695863 0.018729501456190317 0.03087288469014794 8.092014145909603 3.4943865589484604 -19.260132282986028 -0.0342220100958018 10.442770716141759 0.020669218690487975 -5.646161818122885 -15.703088840582266 3.1950739666295207 0.02817223736080988 -0.0172387377039294 -0.02326012985328689 0.011438898838531237 4.682111492726361 -0.03165132168891027 12.501074905505037 -8.211554436142332 6.858289601502588 -0.02131603120952726 46.35291438392105 0.02594761430028453 -4.3250626573246835 -14.758423097012447 -3.8818793637322258 -0.010363098395581602 -0.031084264586223823 0.008353152584537286 -0.037081121261644596 -10.743523310727271 0.025315950769695755 
0.01925001579311825 -0.027346258201837226 -0.013173557750771687 0.011335051666234722 0.030364258088552695 0.01132703545020581 -3.2170604176759805 -0.6228966717591031 -0.8167538436858616 -0.9356283768436225 3.548505617419168 0.3637383076692249 -1.1790729317631623 -2.0447092826170623 -1.3926604291899813 -0.162013630186971 0.39678349946351166 -0.876211893906121 -0.39880009350461054 12.445508782313674 1.3585939603330226 0.21158869770209554 0.5039615694721651 2.034337168783023 -0.17534648415883775 -13.838703486441299 0.22294425269465784 -3.4189987966868056 1.4031289231018882 -14.527997416442233 71.99140946586685 25.654788575929746 3.4466817142521915 33.679017432061386 4.173517563155823 92.8605379451509 20.576508976984027 -0.3639893385950704 -3.8729879565494665 4.578333852390648 -0.1600858487156157 -1.5935613425544928 0.014632460968081636 -0.006088782660213165 -56.23852074986966 -0.021605677459028257 0.03126680876735976 -56.25354201191183 -38.76741923741309 -0.04265020231115664 0.0008247380446552719 -0.033918873847117274 0.03918424262839898 -0.002461640055234352 0.03847110695609758 0.04865270321360319 0.027671435746777624 -36.72598298227061 -0.004532521825013124 -0.02339274405471426 -0.048430862272596215 0.013302169882778376 0.04376641488767768 -0.005792874322902341 0.006432739616586714 -0.013228685660557715 -19.75389674918609 0.043505479779705605 0.0012532174138847028 -0.037087992177443865 -0.023771501700544945 0.0062232678957767715 0.048282145946028886 0.0025716415197980526 -0.02497375949237606 24.042423397202295 -0.038403970592166235 -0.032479441226520536 28.83323875428518 0.0006453428341748486 -0.047256024797263256 28.832053123064643 0.037673976557120695 0.01998876226949855 6.014997951581069 1.431415582834127 12.758660508175321 -72.52663776486001 25.66972115102548 -7.601648486926092 -77.6241672839127 9.88910030666713 -97.57061547825052 -15.570739264363532 0.07327962909411241 -0.15377043391138376 -0.43345845464043786 0.06597924680056666 -8.169250190603588 -0.022282770291192838 -0.030815544570949482 44.56769672334786 0.0024281106141910334 0.018436997212070982 44.55717652176212 12.455901248993078 -0.00012097555756486778 -0.0010120734079328275 0.04846297833739876 -0.037072998853197585 0.045759378807404646 -0.015626722188234923 -0.029036349159627873 0.02654545002761073 11.089485846261272 0.018860180804874914 -0.02532157304016717 0.008721252937797035 0.011013839143675886 0.002356389059321412 -0.01822595283112422 0.0008374312059406017 -0.019217815210389948 4.740446366271738 -0.03448162610305703 -0.01393704852468716 0.0027151473359699418 -0.011440179263606513 0.006851346817904634 -0.0015499229687188593 0.01627888394191629 0.017466315299964726 -5.639902780938509 0.0041325550134527 -0.00848229560616805 -6.726704621277732 0.026797770254774044 0.04835661848176884 -6.7312641743683255 0.04035262280365235 0.04832569254174397 0.04828275163981014 -0.038324802004171446 -0.012757750960754427 8.037047840121966 3.498605884117205 -19.202718480795927 0.00590929695296307 10.400685944078669 -0.001837544523228124 -5.650598121080945 -15.636131475227279 3.227638539204825 0.005077028279536075 0.004057034927792313 0.013380282018185877 0.04181720120011447 4.648221673385627 -0.020070709258064482 12.454211101026262 -8.245924141981934 6.9256337877163805 -0.03582160084438663 46.389388935623174 0.021940408662616713 -4.277422685981231 -14.749326911498152 -3.8366294442743234 0.009742536547081584 0.028712447631160497 -0.04701247629579283 -0.0008217666037488768 -10.737093358463786 -0.008780530477133865 
